<svg xmlns="http://www.w3.org/2000/svg" viewBox="0 0 24 24" width="48" height="48">
  <path d="M12 2C6.48 2 2 6.48 2 12s4.48 10 10 10 10-4.48 10-10S17.52 2 12 2zm0 18c-4.41 0-8-3.59-8-8s3.59-8 8-8 8 3.59 8 8-3.59 8-8 8z" fill="#FFFFFF"/>
  <path d="M12 4c-3.31 0-6 2.69-6 6s2.69 6 6 6 6-2.69 6-6-2.69-6-6-6zm0 10c-2.21 0-4-1.79-4-4s1.79-4 4-4 4 1.79 4 4-1.79 4-4 4z" fill="#2196F3"/>
  <path d="M12,6c-2.21,0-4,1.79-4,4s1.79,4,4,4s4-1.79,4-4S14.21,6,12,6z M12,13c-1.65,0-3-1.35-3-3s1.35-3,3-3s3,1.35,3,3 S13.65,13,12,13z" fill="#FFFFFF"/>
  <path d="M18.3,16.59c-0.45-0.78-1.07-1.4-1.8-1.83l-1.5,2.59c0.36,0.22,0.68,0.49,0.95,0.8L18.3,16.59z" fill="#42A5F5"/>
  <path d="M5.7,16.59l2.35-1.59c0.27-0.31,0.59-0.58,0.95-0.8l-1.5-2.59C6.77,15.19,6.15,15.81,5.7,16.59z" fill="#42A5F5"/>
</svg>